<?xml version="1.0" standalone="no"?>
<!DOCTYPE svg PUBLIC "-//W3C//DTD SVG 20010904//EN"
 "http://www.w3.org/TR/2001/REC-SVG-20010904/DTD/svg10.dtd">
<svg version="1.0" xmlns="http://www.w3.org/2000/svg"
 width="256.000000pt" height="256.000000pt" viewBox="0 0 256.000000 256.000000"
 preserveAspectRatio="xMidYMid meet">
<metadata>
Created by potrace 1.14, written by Peter Selinger 2001-2017
</metadata>
<g transform="translate(0.000000,256.000000) scale(0.100000,-0.100000)"
fill="#000000" stroke="none">
<path d="M1200 2424 c-224 -25 -401 -86 -565 -197 -78 -53 -214 -185 -276
-267 -98 -130 -181 -323 -209 -490 -17 -96 -17 -284 0 -380 26 -153 95 -325
183 -455 53 -78 185 -214 267 -276 130 -98 323 -181 490 -209 96 -17 284 -17
380 0 167 28 360 111 490 209 82 62 214 198 267 276 88 130 157 302 183 455 8
41 13 127 13 190 0 193 -40 359 -128 528 -59 113 -124 199 -227 298 -208 199
-448 302 -738 317 -52 3 -111 3 -130 1z m77 -398 c4 -4 -2 -15 -14 -23 -22
-15 -23 -21 -23 -179 l0 -164 128 0 c70 1 158 5 195 9 41 6 81 5 102 0 l35
-10 0 -444 0 -445 100 0 c122 0 121 -2 128 157 3 62 6 113 7 113 2 0 27 -12
55 -27 l53 -27 -6 -92 c-8 -114 -32 -190 -70 -218 -26 -19 -42 -21 -170 -21
-157 1 -176 6 -204 58 -16 29 -18 73 -21 436 l-4 404 -164 -5 c-91 -3 -167 -8
-171 -11 -3 -4 -12 -50 -20 -104 -30 -203 -81 -356 -164 -493 -60 -97 -167
-208 -256 -267 l-63 -41 -40 40 c-22 22 -40 43 -40 47 0 4 17 17 38 29 157 89
292 274 357 487 25 81 55 237 55 282 l0 25 -206 -7 -205 -8 3 59 3 59 203 3
203 2 9 26 c6 14 10 102 10 196 l0 170 74 -4 c41 -2 78 -7 83 -12z"/>
</g>
</svg>
